<?xml version="1.0" encoding="UTF-8" standalone="no"?>
<svg width="81px" height="95px" viewBox="0 0 81 95" version="1.1" xmlns="http://www.w3.org/2000/svg" xmlns:xlink="http://www.w3.org/1999/xlink">
    <!-- Generator: sketchtool 41 (35326) - http://www.bohemiancoding.com/sketch -->
    <title>0FAD97B5-9BE7-4A7F-A751-07B9E7089D5F</title>
    <desc>Created with sketchtool.</desc>
    <defs></defs>
    <g id="Symbols" stroke="none" stroke-width="1" fill="none" fill-rule="evenodd">
        <g id="goals" transform="translate(-296.000000, -277.000000)" fill="#363636">
            <g id="Group-5" transform="translate(259.000000, 277.000000)">
                <path d="M80.780965,0 C70.3344323,0 61.8251911,8.50924161 61.8251911,18.9557739 C61.8251911,29.4023066 70.3344323,37.9115479 80.780965,37.9115479 C91.2274977,37.9115479 99.736739,29.4023066 99.736739,18.9557739 C99.736739,8.50924161 91.2274977,0 80.780965,0 L80.780965,0 Z M80.780965,37.9115479 L66.5641346,37.9115479 C62.9966712,37.9115479 60.1202538,39.6116704 57.560142,42.176597 C57.0380214,42.368471 56.6265169,42.7799755 56.4346429,43.3020961 C56.4346429,43.3020961 56.4350315,43.3602638 56.4346429,43.3613329 C56.0821622,43.7638966 55.70974,44.1731006 55.3683806,44.6053055 C52.2835051,48.511156 49.3270249,53.6894091 45.2981257,59.5922143 C38.0149638,70.3712938 36.0979279,78.9128641 37.3603954,85.0640355 C38.6228628,91.2152069 43.3324044,94.7788697 48.2007286,94.7788697 L55.0721966,94.7788697 C55.5454199,94.979653 56.0798932,94.979653 56.5531165,94.7788697 L86.1715132,94.7788697 L90.3773256,94.7788697 C90.9330056,95.0737101 91.5987493,95.0737101 92.1544294,94.7788697 L109.570047,94.7788697 C112.423027,94.7788697 114.757184,92.9695809 115.908384,90.5730573 C117.059583,88.1765338 117.423727,85.2150808 117.44854,81.8652487 C117.498166,75.1655863 115.976423,66.9276932 114.249753,59.8291615 C112.402995,52.5393262 109.958384,47.1545671 106.726681,43.4798065 C103.494977,39.8050458 99.3922993,37.9115479 94.9977955,37.9115479 L80.780965,37.9115479 L80.780965,37.9115479 Z M80.780965,3.79115479 C89.178606,3.79115479 95.9455842,10.5581337 95.9455842,18.9557739 C95.9455842,27.3534149 89.178606,34.1203931 80.780965,34.1203931 C72.383324,34.1203931 65.6163459,27.3534149 65.6163459,18.9557739 C65.6163459,10.5581337 72.383324,3.79115479 80.780965,3.79115479 L80.780965,3.79115479 Z M66.5641346,41.7027027 L76.9898102,41.7027027 L83.7428047,69.721706 L83.7428047,69.7809428 C83.7415717,69.8204244 83.7415717,69.8599348 83.7428047,69.8994164 C83.6946426,70.3358524 83.799317,70.7754849 84.0389887,71.1433891 C84.058296,71.1635681 84.0780464,71.1833186 84.0982255,71.2026258 L88.8371689,90.9877149 L86.2899868,90.9877149 L56.1384589,90.9877149 C54.120323,89.4523598 52.9933795,86.2921555 52.7027249,81.9244855 C52.3926937,77.2656377 53.0404561,71.4785177 54.1244079,65.9305512 C56.0917803,55.8609901 59.1718737,46.9015853 59.7519033,45.2569103 C61.9327158,42.891243 63.9658761,41.7027027 66.5641346,41.7027027 L66.5641346,41.7027027 Z M80.8994386,41.7027027 L94.9977955,41.7027027 C98.375159,41.7027027 101.238728,42.9606021 103.883315,45.9677518 C106.527901,48.9749015 108.822234,53.7907182 110.577072,60.7177134 C112.262441,67.6464544 113.702538,75.7105269 113.657385,81.8060119 C113.634809,84.8537535 113.20518,87.3894749 112.47265,88.9144271 C111.740119,90.4393793 111.076894,90.9877149 109.570047,90.9877149 L101.395369,90.9877149 C103.869909,88.572846 105.423471,85.2132307 105.423471,81.5098279 C105.423471,74.2204704 99.443787,68.2407862 92.1544294,68.2407862 L87.2377755,68.2407862 L80.8994386,41.7027027 L80.8994386,41.7027027 Z M52.8211985,55.0309812 C51.9622089,58.1775866 51.1073817,61.5606937 50.3924899,65.2197097 C49.2728328,70.9504288 48.5640728,76.9395832 48.9115701,82.1614327 C49.130914,85.4575176 49.787396,88.55433 51.221805,90.9877149 L48.2007286,90.9877149 C45.1076277,90.9877149 41.9979126,88.9949664 41.0330766,84.2939572 C40.0682406,79.592948 41.5040072,71.9865684 48.4376757,61.7247389 C50.0678431,59.3363531 51.4894752,57.1124427 52.8211985,55.0309812 L52.8211985,55.0309812 Z M88.1263274,72.031941 L92.1544294,72.031941 C97.3758826,72.031941 101.632316,76.2883747 101.632316,81.5098279 C101.632316,86.547158 97.655285,90.642826 92.6875605,90.9284781 L88.1263274,72.031941 L88.1263274,72.031941 Z" id="Shape"></path>
            </g>
        </g>
    </g>
</svg>