<?xml version="1.0" encoding="UTF-8" standalone="no"?>
<svg width="95px" height="95px" viewBox="0 0 95 95" version="1.1" xmlns="http://www.w3.org/2000/svg" xmlns:xlink="http://www.w3.org/1999/xlink">
    <!-- Generator: sketchtool 41 (35326) - http://www.bohemiancoding.com/sketch -->
    <title>50F4416B-D6D3-486D-B8B3-FD482A7B7B1E</title>
    <desc>Created with sketchtool.</desc>
    <defs></defs>
    <g id="Symbols" stroke="none" stroke-width="1" fill="none" fill-rule="evenodd">
        <g id="goals" transform="translate(-707.000000, -277.000000)" fill="#363636">
            <g id="Group-2" transform="translate(671.000000, 277.000000)">
                <g id="Fires">
                    <path d="M114.598865,0.015541257 C114.538558,0.0323826572 114.479121,0.0521950713 114.420771,0.0749059586 C101.889724,2.76013041 96.6979283,10.2027055 94.5335958,17.3500341 C94.2870034,18.1643649 94.0679239,18.9868206 93.8805841,19.7839869 L67.0477389,9.63262292 C66.7646749,9.5224298 66.4593153,9.48171519 66.1572684,9.51389351 C66.0146856,9.53753482 65.8752661,9.57736895 65.7417155,9.63262292 L37.2466587,20.4369986 C36.4989657,20.710755 36.001299,21.4217074 36,22.2179397 L36,93.0993934 C36.0001049,94.1485089 36.8505549,94.9989589 37.8996705,94.9990638 L94.889784,94.9990638 C95.3415376,95.0132458 95.783549,94.8659086 96.1364427,94.5835109 C96.8467732,94.7344416 97.3237368,94.8209697 97.3237368,94.8209697 C98.1390049,94.9238468 98.9280092,94.4909252 99.2792013,93.7480188 C99.6303934,93.0051124 99.464164,92.1206257 98.867219,91.5559111 C98.867219,91.5559111 90.596033,82.8822704 89.4282314,68.0474893 C90.1689187,68.3455818 91.1011534,68.8283944 91.7434548,68.9973245 C93.2800849,69.4014718 94.7149117,69.476165 95.9583486,68.9379598 C97.2017855,68.3997547 97.9492166,67.3184471 98.3923014,66.2665483 C98.8353862,65.2146494 99.0587951,64.098329 99.2827719,62.942125 C99.7307256,60.6297188 100.195814,58.0816965 101.479266,55.6996314 C102.305062,54.1669658 103.699405,52.7125459 105.516066,51.3660081 C103.957422,58.3949845 103.599287,64.9146991 105.041148,68.9379598 C105.479556,70.1612564 106.058057,71.2293366 107.000183,72.0249243 C107.942309,72.820512 109.424032,73.148663 110.680795,72.7966654 C112.538017,72.2764882 113.947153,70.5746418 115.370606,68.2849481 C116.013734,69.5981618 116.735994,71.855316 116.735994,76.0023593 C116.735994,79.3252382 115.152813,83.3368027 113.470936,86.4505468 C111.789059,89.5642909 110.087148,91.7340052 110.087148,91.7340052 C109.593595,92.3644597 109.54827,93.2366736 109.973818,93.9148892 C110.399365,94.5931049 111.204436,94.931737 111.986818,94.761605 C118.13612,93.4670157 122.869211,88.7082291 126.056252,82.7105706 C129.243293,76.712912 130.983523,69.40446 130.983523,62.3484779 C130.983523,55.9310017 129.774872,48.1356736 127.837193,40.9178207 C125.899514,33.6999677 123.277867,27.0951916 120.119782,22.9896808 C119.653264,22.3859038 118.870795,22.1198012 118.132906,22.3139825 C117.395017,22.5081638 116.844887,23.1249502 116.735994,23.8801513 C116.493364,25.7403162 115.664705,28.0993004 114.717594,29.5791627 C114.244039,30.3190938 113.711014,30.8583134 113.470936,31.0039155 C112.745113,30.5529698 111.877169,29.201871 111.393171,27.0264805 C110.900518,24.8121904 110.787752,21.929602 111.036983,18.8935164 C111.535445,12.8213434 113.637706,6.1827207 116.261077,3.16187044 C116.78733,2.56962405 116.890811,1.71298272 116.520723,1.01245936 C116.150635,0.311936007 115.384684,-0.0853827097 114.598865,0.015541257 L114.598865,0.015541257 Z M110.977618,5.1802703 C109.026385,9.16303768 107.629817,13.8192838 107.237642,18.5966929 C106.964464,21.9245033 107.101037,25.1089873 107.71256,27.8575863 C108.317219,30.5753061 109.410202,32.9742746 111.571265,34.2689741 L111.571265,34.3283388 C111.583423,34.3355575 111.618358,34.32112 111.63063,34.3283388 C112.841784,35.0410249 114.402293,34.8328761 115.429971,34.2096094 C116.47217,33.5775339 117.257041,32.6979371 117.923288,31.6569272 C118.469278,30.8038194 118.590629,29.6876889 118.991853,28.6886921 C120.90659,32.1950811 122.749424,36.6259902 124.156582,41.8676559 C126.018244,48.8023478 127.184182,56.4180962 127.184182,62.3484779 C127.184182,68.7801561 125.576242,75.5767571 122.731829,80.9296295 C121.102385,83.9960643 119.090712,86.4853906 116.795359,88.2908525 C118.627872,84.8982254 120.535335,80.4681293 120.535335,76.0023593 C120.535335,71.115554 119.613934,68.0196059 118.5763,66.0884541 C118.057483,65.1228783 117.498556,64.4548648 117.032818,64.0106896 C116.567079,63.5665143 116.082982,63.2983132 116.082982,63.2983132 C115.148502,62.8238543 114.006314,63.1957295 113.5303,64.129419 C111.725752,67.6934002 110.019449,69.0779902 109.671595,69.1754186 C109.497661,69.2241262 109.663046,69.2591751 109.493501,69.1160539 C109.324031,68.9729328 108.960109,68.4626585 108.662395,67.6319364 C107.471533,64.309048 107.463908,56.3419745 110.027783,48.1009496 C110.2658,47.3801896 110.051965,46.5869248 109.483937,46.0834455 C108.915909,45.5799662 108.102711,45.4629056 107.415736,45.7857262 C102.610998,47.8814103 99.7387061,50.8688853 98.0954779,53.9186903 C96.4522496,56.9684953 95.9734396,60.0066915 95.5427957,62.2297485 C95.3274738,63.3412761 95.1152939,64.2470656 94.889784,64.7824307 C94.6642741,65.3177958 94.5635308,65.3710949 94.4148664,65.4354424 C94.2661982,65.4997843 93.7664804,65.5989661 92.69329,65.316713 C91.6200997,65.0344543 90.0921682,64.4000384 88.0034786,63.2983132 C87.4171433,62.9872617 86.7109858,63.0047551 86.1407714,63.3444573 C85.5705569,63.6841596 85.2189642,64.2968152 85.2133376,64.9605248 C85.2133376,76.2994279 89.2458365,84.3411755 92.4558312,89.1813231 C91.0376323,88.5946364 89.6584449,88.1438655 88.0628433,87.0441938 C83.1893319,83.6854226 78.3863969,77.8146449 78.3863969,66.5040071 C78.3863969,63.087615 80.0869591,56.8824669 81.4139967,50.4161729 C82.4664711,45.2877523 83.2628282,39.9291068 82.4231967,35.1000799 C83.3547039,35.644875 84.3617648,36.3019881 85.4507964,36.9403857 C86.6055681,37.6173199 87.9381907,38.2686827 89.5469608,38.1870444 C91.1320934,38.1066123 92.6765786,37.1475998 93.8805841,35.5749975 L93.9399488,35.5749975 C93.9486873,35.5635995 93.9314003,35.5271448 93.9399488,35.5156328 C95.5191885,33.4461185 95.9252393,30.8008122 96.3739015,27.8575863 C96.8256546,24.8940814 97.1948631,21.588765 98.1548426,18.4185988 C99.7917639,13.0129541 103.074803,8.0695072 110.977618,5.1802703 L110.977618,5.1802703 Z M66.3947272,13.4319638 L93.1088429,23.5833278 C92.8982037,24.8626229 92.7465435,26.1357345 92.5745606,27.2639393 C92.1358431,30.141921 91.5850641,32.3908516 90.912349,33.2597742 C90.1288698,34.3044124 89.7488141,34.3684218 89.3688667,34.3877035 C88.9889194,34.4069851 88.2615868,34.2094384 87.3504669,33.6753271 C85.528227,32.6071177 83.1503943,30.3628907 79.7517851,30.2321744 C79.2053149,30.2127073 78.6769539,30.4296437 78.3018305,30.8275018 C77.9267072,31.2253599 77.741199,31.7655575 77.7927499,32.3099389 L72.0937386,32.3099389 L72.0937386,43.7079616 L78.6832205,43.7079616 C78.4652599,45.6461061 78.1433113,47.6469701 77.7333852,49.6444318 C77.6181512,50.2059326 77.4999423,50.7496715 77.377197,51.3066434 L72.0937386,51.3066434 L72.0937386,62.7046662 L74.8838796,62.7046662 C74.6793838,64.0506245 74.587056,65.3315248 74.587056,66.5040071 C74.587056,67.8271693 74.6436111,69.0934801 74.7651501,70.303348 L72.0937386,70.303348 L72.0937386,81.7013707 L78.2676675,81.7013707 C80.381598,85.4834493 83.1367851,88.2684231 85.9257141,90.190523 C86.4759574,90.5697447 87.0418654,90.8782398 87.5879257,91.1997229 L39.7993409,91.1997229 L39.7993409,23.5239631 L66.3947272,13.4319638 L66.3947272,13.4319638 Z M49.2976932,32.3099389 L49.2976932,43.7079616 L60.6957159,43.7079616 L60.6957159,32.3099389 L49.2976932,32.3099389 L49.2976932,32.3099389 Z M49.2976932,51.3066434 L49.2976932,62.7046662 L60.6957159,62.7046662 L60.6957159,51.3066434 L49.2976932,51.3066434 L49.2976932,51.3066434 Z M49.2976932,70.303348 L49.2976932,81.7013707 L60.6957159,81.7013707 L60.6957159,70.303348 L49.2976932,70.303348 L49.2976932,70.303348 Z" id="Shape"></path>
                </g>
            </g>
        </g>
    </g>
</svg>