<?xml version="1.0" encoding="UTF-8" standalone="no"?>
<svg width="95px" height="95px" viewBox="0 0 95 95" version="1.1" xmlns="http://www.w3.org/2000/svg" xmlns:xlink="http://www.w3.org/1999/xlink">
    <!-- Generator: sketchtool 41 (35326) - http://www.bohemiancoding.com/sketch -->
    <title>BD001581-5AC0-4CAE-A2A4-E9845B10BAE5</title>
    <desc>Created with sketchtool.</desc>
    <defs></defs>
    <g id="Symbols" stroke="none" stroke-width="1" fill="none" fill-rule="evenodd">
        <g id="goals" transform="translate(-1091.000000, -277.000000)" fill="#363636">
            <g id="Group-3" transform="translate(1068.000000, 277.000000)">
                <g id="Hospital" transform="translate(23.000000, 0.000000)">
                    <path d="M3.8,0 C2.80777782,0 1.78510797,0.352392031 1.06875,1.06875 C0.352392031,1.78510797 0,2.80777782 0,3.8 L0,91.2 C0,92.1922218 0.352392031,93.2148911 1.06875,93.93125 C1.78510797,94.6476089 2.80777782,95 3.8,95 L91.2,95 C92.1922218,95 93.2148911,94.6476089 93.93125,93.93125 C94.6476089,93.2148911 95,92.1922218 95,91.2 L95,3.8 C95,2.80777782 94.6476089,1.78510797 93.93125,1.06875 C93.2148911,0.352392031 92.1922218,0 91.2,0 L3.8,0 L3.8,0 Z M3.8,3.8 L91.2,3.8 L91.2,91.2 L3.8,91.2 L3.8,3.8 L3.8,3.8 Z M43.7,22.8 L43.7,43.7 L22.8,43.7 L22.8,51.3 L43.7,51.3 L43.7,72.2 L51.3,72.2 L51.3,51.3 L72.2,51.3 L72.2,43.7 L51.3,43.7 L51.3,22.8 L43.7,22.8 L43.7,22.8 Z" id="Shape"></path>
                </g>
            </g>
        </g>
    </g>
</svg>